<svg width="20" height="20" viewBox="0 0 20 20" fill="none" xmlns="http://www.w3.org/2000/svg">
<g clip-path="url(#clip0_122_137)">
<rect width="20" height="20" rx="10" fill="currentColor"/>
<path d="M6.3376 6.682C7.0036 6.682 7.5856 6.814 8.0836 7.078C8.5816 7.342 8.9656 7.714 9.2356 8.194C9.5116 8.668 9.6496 9.217 9.6496 9.841C9.6496 10.459 9.5116 11.008 9.2356 11.488C8.9656 11.968 8.5786 12.34 8.0746 12.604C7.5766 12.868 6.9976 13 6.3376 13H3.9706V6.682H6.3376ZM6.2386 11.668C6.8206 11.668 7.2736 11.509 7.5976 11.191C7.9216 10.873 8.0836 10.423 8.0836 9.841C8.0836 9.259 7.9216 8.806 7.5976 8.482C7.2736 8.158 6.8206 7.996 6.2386 7.996H5.5096V11.668H6.2386ZM14.4427 11.884H12.0847L11.7067 13H10.0957L12.3817 6.682H14.1637L16.4497 13H14.8207L14.4427 11.884ZM14.0467 10.696L13.2637 8.383L12.4897 10.696H14.0467Z" fill="white"/>
</g>
<defs>
<clipPath id="clip0_122_137">
<rect width="20" height="20" rx="10" fill="white"/>
</clipPath>
</defs>
</svg>
