<svg width="0" height="0" class="hidden">
  <symbol xmlns="http://www.w3.org/2000/svg" viewBox="0 0 24 24" id="finance">
    <path d="M0 0h24v24H0V0z" fill="none"></path>
    <path d="M4 11.5v4c0 .83.67 1.5 1.5 1.5S7 16.33 7 15.5v-4c0-.83-.67-1.5-1.5-1.5S4 10.67 4 11.5zm6 0v4c0 .83.67 1.5 1.5 1.5s1.5-.67 1.5-1.5v-4c0-.83-.67-1.5-1.5-1.5s-1.5.67-1.5 1.5zM3.5 22h16c.83 0 1.5-.67 1.5-1.5s-.67-1.5-1.5-1.5h-16c-.83 0-1.5.67-1.5 1.5S2.67 22 3.5 22zM16 11.5v4c0 .83.67 1.5 1.5 1.5s1.5-.67 1.5-1.5v-4c0-.83-.67-1.5-1.5-1.5s-1.5.67-1.5 1.5zM10.57 1.49l-7.9 4.16c-.41.21-.67.64-.67 1.1C2 7.44 2.56 8 3.25 8h16.51C20.44 8 21 7.44 21 6.75c0-.46-.26-.89-.67-1.1l-7.9-4.16c-.58-.31-1.28-.31-1.86 0z"></path>
  </symbol>
  <symbol xmlns="http://www.w3.org/2000/svg" viewBox="0 0 24 24" id="product">
    <path d="M0 0h24v24H0V0z" fill="none"></path>
    <path d="m21.41 11.58-9-9C12.05 2.22 11.55 2 11 2H4c-1.1 0-2 .9-2 2v7c0 .55.22 1.05.59 1.42l9 9c.36.36.86.58 1.41.58s1.05-.22 1.41-.59l7-7c.37-.36.59-.86.59-1.41s-.23-1.06-.59-1.42zM5.5 7C4.67 7 4 6.33 4 5.5S4.67 4 5.5 4 7 4.67 7 5.5 6.33 7 5.5 7z"></path>
  </symbol>
  <symbol xmlns="http://www.w3.org/2000/svg" enable-background="new 0 0 24 24" viewBox="0 0 24 24" id="settings">
    <rect fill="none" height="24" width="24"></rect>
    <path d="M19.5,12c0-0.23-0.01-0.45-0.03-0.68l1.86-1.41c0.4-0.3,0.51-0.86,0.26-1.3l-1.87-3.23c-0.25-0.44-0.79-0.62-1.25-0.42 l-2.15,0.91c-0.37-0.26-0.76-0.49-1.17-0.68l-0.29-2.31C14.8,2.38,14.37,2,13.87,2h-3.73C9.63,2,9.2,2.38,9.14,2.88L8.85,5.19 c-0.41,0.19-0.8,0.42-1.17,0.68L5.53,4.96c-0.46-0.2-1-0.02-1.25,0.42L2.41,8.62c-0.25,0.44-0.14,0.99,0.26,1.3l1.86,1.41 C4.51,11.55,4.5,11.77,4.5,12s0.01,0.45,0.03,0.68l-1.86,1.41c-0.4,0.3-0.51,0.86-0.26,1.3l1.87,3.23c0.25,0.44,0.79,0.62,1.25,0.42 l2.15-0.91c0.37,0.26,0.76,0.49,1.17,0.68l0.29,2.31C9.2,21.62,9.63,22,10.13,22h3.73c0.5,0,0.93-0.38,0.99-0.88l0.29-2.31 c0.41-0.19,0.8-0.42,1.17-0.68l2.15,0.91c0.46,0.2,1,0.02,1.25-0.42l1.87-3.23c0.25-0.44,0.14-0.99-0.26-1.3l-1.86-1.41 C19.49,12.45,19.5,12.23,19.5,12z M12.04,15.5c-1.93,0-3.5-1.57-3.5-3.5s1.57-3.5,3.5-3.5s3.5,1.57,3.5,3.5S13.97,15.5,12.04,15.5z"></path>
  </symbol>
  <symbol xmlns="http://www.w3.org/2000/svg" viewBox="0 0 24 24" id="shipment">
    <path d="M0 0h24v24H0V0z" fill="none"></path>
    <path d="M19.5 8H17V6c0-1.1-.9-2-2-2H3c-1.1 0-2 .9-2 2v9c0 1.1.9 2 2 2 0 1.66 1.34 3 3 3s3-1.34 3-3h6c0 1.66 1.34 3 3 3s3-1.34 3-3h1c.55 0 1-.45 1-1v-3.33c0-.43-.14-.85-.4-1.2L20.3 8.4c-.19-.25-.49-.4-.8-.4zM6 18c-.55 0-1-.45-1-1s.45-1 1-1 1 .45 1 1-.45 1-1 1zm13.5-8.5l1.96 2.5H17V9.5h2.5zM18 18c-.55 0-1-.45-1-1s.45-1 1-1 1 .45 1 1-.45 1-1 1z"></path>
  </symbol>
  <symbol xmlns="http://www.w3.org/2000/svg" viewBox="0 0 24 24" id="spinner">
    <g fill="currentColor">
      <path fill-rule="evenodd" d="M12 19a7 7 0 1 0 0-14a7 7 0 0 0 0 14Zm0 3c5.523 0 10-4.477 10-10S17.523 2 12 2S2 6.477 2 12s4.477 10 10 10Z" clip-rule="evenodd" opacity=".2"></path>
      <path d="M2 12C2 6.477 6.477 2 12 2v3a7 7 0 0 0-7 7H2Z"></path>
    </g>
  </symbol>
  <symbol xmlns="http://www.w3.org/2000/svg" enable-background="new 0 0 24 24" viewBox="0 0 24 24" id="stock">
    <g>
      <rect fill="none" height="24" width="24"></rect>
    </g>
    <g>
      <path d="M20,2H4C3,2,2,2.9,2,4v3.01C2,7.73,2.43,8.35,3,8.7V20c0,1.1,1.1,2,2,2h14c0.9,0,2-0.9,2-2V8.7c0.57-0.35,1-0.97,1-1.69V4 C22,2.9,21,2,20,2z M14,14h-4c-0.55,0-1-0.45-1-1v0c0-0.55,0.45-1,1-1h4c0.55,0,1,0.45,1,1v0C15,13.55,14.55,14,14,14z M20,7H4V4 h16V7z"></path>
    </g>
  </symbol>
  <symbol xmlns="http://www.w3.org/2000/svg" viewBox="0 0 24 24" id="upload">
    <path fill="currentColor" d="M11 16V7.85l-2.6 2.6L7 9l5-5l5 5l-1.4 1.45l-2.6-2.6V16h-2Zm-5 4q-.825 0-1.412-.587T4 18v-3h2v3h12v-3h2v3q0 .825-.587 1.413T18 20H6Z"></path>
  </symbol>
</svg>