<svg width="0" height="0" class="hidden">
  <symbol xmlns="http://www.w3.org/2000/svg" enable-background="new 0 0 24 24" viewBox="0 0 24 24" id="grid_view">
    <g>
      <rect fill="none" height="24" width="24"></rect>
    </g>
    <g>
      <g>
        <path d="M5,11h4c1.1,0,2-0.9,2-2V5c0-1.1-0.9-2-2-2H5C3.9,3,3,3.9,3,5v4C3,10.1,3.9,11,5,11z"></path>
        <path d="M5,21h4c1.1,0,2-0.9,2-2v-4c0-1.1-0.9-2-2-2H5c-1.1,0-2,0.9-2,2v4C3,20.1,3.9,21,5,21z"></path>
        <path d="M13,5v4c0,1.1,0.9,2,2,2h4c1.1,0,2-0.9,2-2V5c0-1.1-0.9-2-2-2h-4C13.9,3,13,3.9,13,5z"></path>
        <path d="M15,21h4c1.1,0,2-0.9,2-2v-4c0-1.1-0.9-2-2-2h-4c-1.1,0-2,0.9-2,2v4C13,20.1,13.9,21,15,21z"></path>
      </g>
    </g>
  </symbol>
  <symbol xmlns="http://www.w3.org/2000/svg" enable-background="new 0 0 24 24" viewBox="0 0 24 24" id="list_view">
    <rect fill="none" height="24" width="24"></rect>
    <path d="M4,14h2c0.55,0,1-0.45,1-1v-2c0-0.55-0.45-1-1-1H4c-0.55,0-1,0.45-1,1v2C3,13.55,3.45,14,4,14z M4,19h2c0.55,0,1-0.45,1-1 v-2c0-0.55-0.45-1-1-1H4c-0.55,0-1,0.45-1,1v2C3,18.55,3.45,19,4,19z M4,9h2c0.55,0,1-0.45,1-1V6c0-0.55-0.45-1-1-1H4 C3.45,5,3,5.45,3,6v2C3,8.55,3.45,9,4,9z M9,14h11c0.55,0,1-0.45,1-1v-2c0-0.55-0.45-1-1-1H9c-0.55,0-1,0.45-1,1v2 C8,13.55,8.45,14,9,14z M9,19h11c0.55,0,1-0.45,1-1v-2c0-0.55-0.45-1-1-1H9c-0.55,0-1,0.45-1,1v2C8,18.55,8.45,19,9,19z M8,6v2 c0,0.55,0.45,1,1,1h11c0.55,0,1-0.45,1-1V6c0-0.55-0.45-1-1-1H9C8.45,5,8,5.45,8,6z"></path>
  </symbol>
  <symbol xmlns="http://www.w3.org/2000/svg" viewBox="0 0 24 24" id="product">
    <path d="M0 0h24v24H0V0z" fill="none"></path>
    <path d="m21.41 11.58-9-9C12.05 2.22 11.55 2 11 2H4c-1.1 0-2 .9-2 2v7c0 .55.22 1.05.59 1.42l9 9c.36.36.86.58 1.41.58s1.05-.22 1.41-.59l7-7c.37-.36.59-.86.59-1.41s-.23-1.06-.59-1.42zM5.5 7C4.67 7 4 6.33 4 5.5S4.67 4 5.5 4 7 4.67 7 5.5 6.33 7 5.5 7z"></path>
  </symbol>
  <symbol xmlns="http://www.w3.org/2000/svg" viewBox="0 0 24 24" id="search">
    <path d="M0 0h24v24H0V0z" fill="none"></path>
    <path d="M15.5 14h-.79l-.28-.27c1.2-1.4 1.82-3.31 1.48-5.34-.47-2.78-2.79-5-5.59-5.34-4.23-.52-7.79 3.04-7.27 7.27.34 2.8 2.56 5.12 5.34 5.59 2.03.34 3.94-.28 5.34-1.48l.27.28v.79l4.25 4.25c.41.41 1.08.41 1.49 0 .41-.41.41-1.08 0-1.49L15.5 14zm-6 0C7.01 14 5 11.99 5 9.5S7.01 5 9.5 5 14 7.01 14 9.5 11.99 14 9.5 14z"></path>
  </symbol>
  <symbol xmlns="http://www.w3.org/2000/svg" viewBox="0 0 24 24" id="shipment">
    <path d="M0 0h24v24H0V0z" fill="none"></path>
    <path d="M19.5 8H17V6c0-1.1-.9-2-2-2H3c-1.1 0-2 .9-2 2v9c0 1.1.9 2 2 2 0 1.66 1.34 3 3 3s3-1.34 3-3h6c0 1.66 1.34 3 3 3s3-1.34 3-3h1c.55 0 1-.45 1-1v-3.33c0-.43-.14-.85-.4-1.2L20.3 8.4c-.19-.25-.49-.4-.8-.4zM6 18c-.55 0-1-.45-1-1s.45-1 1-1 1 .45 1 1-.45 1-1 1zm13.5-8.5l1.96 2.5H17V9.5h2.5zM18 18c-.55 0-1-.45-1-1s.45-1 1-1 1 .45 1 1-.45 1-1 1z"></path>
  </symbol>
  <symbol xmlns="http://www.w3.org/2000/svg" viewBox="0 0 24 24" id="spinner">
    <g fill="currentColor">
      <path fill-rule="evenodd" d="M12 19a7 7 0 1 0 0-14a7 7 0 0 0 0 14Zm0 3c5.523 0 10-4.477 10-10S17.523 2 12 2S2 6.477 2 12s4.477 10 10 10Z" clip-rule="evenodd" opacity=".2"></path>
      <path d="M2 12C2 6.477 6.477 2 12 2v3a7 7 0 0 0-7 7H2Z"></path>
    </g>
  </symbol>
  <symbol xmlns="http://www.w3.org/2000/svg" enable-background="new 0 0 24 24" viewBox="0 0 24 24" id="stock">
    <g>
      <rect fill="none" height="24" width="24"></rect>
    </g>
    <g>
      <path d="M20,2H4C3,2,2,2.9,2,4v3.01C2,7.73,2.43,8.35,3,8.7V20c0,1.1,1.1,2,2,2h14c0.9,0,2-0.9,2-2V8.7c0.57-0.35,1-0.97,1-1.69V4 C22,2.9,21,2,20,2z M14,14h-4c-0.55,0-1-0.45-1-1v0c0-0.55,0.45-1,1-1h4c0.55,0,1,0.45,1,1v0C15,13.55,14.55,14,14,14z M20,7H4V4 h16V7z"></path>
    </g>
  </symbol>
  <symbol xmlns="http://www.w3.org/2000/svg" viewBox="0 0 24 24" id="upload">
    <path fill="currentColor" d="M11 16V7.85l-2.6 2.6L7 9l5-5l5 5l-1.4 1.45l-2.6-2.6V16h-2Zm-5 4q-.825 0-1.412-.587T4 18v-3h2v3h12v-3h2v3q0 .825-.587 1.413T18 20H6Z"></path>
  </symbol>
</svg>