<svg width="0" height="0" class="hidden">
  <symbol xmlns="http://www.w3.org/2000/svg" viewBox="0 0 24 24" id="spinner">
    <g fill="currentColor">
      <path fill-rule="evenodd" d="M12 19a7 7 0 1 0 0-14a7 7 0 0 0 0 14Zm0 3c5.523 0 10-4.477 10-10S17.523 2 12 2S2 6.477 2 12s4.477 10 10 10Z" clip-rule="evenodd" opacity=".2"></path>
      <path d="M2 12C2 6.477 6.477 2 12 2v3a7 7 0 0 0-7 7H2Z"></path>
    </g>
  </symbol>
  <symbol xmlns="http://www.w3.org/2000/svg" viewBox="0 0 24 24" id="upload">
    <path fill="currentColor" d="M11 16V7.85l-2.6 2.6L7 9l5-5l5 5l-1.4 1.45l-2.6-2.6V16h-2Zm-5 4q-.825 0-1.412-.587T4 18v-3h2v3h12v-3h2v3q0 .825-.587 1.413T18 20H6Z"></path>
  </symbol>
</svg>