<svg width="0" height="0" class="hidden">
  <symbol xmlns="http://www.w3.org/2000/svg" viewBox="0 0 24 24" id="add">
    <path d="M0 0h24v24H0V0z" fill="none"></path>
    <path d="M18 13h-5v5c0 .55-.45 1-1 1s-1-.45-1-1v-5H6c-.55 0-1-.45-1-1s.45-1 1-1h5V6c0-.55.45-1 1-1s1 .45 1 1v5h5c.55 0 1 .45 1 1s-.45 1-1 1z"></path>
  </symbol>
  <symbol xmlns="http://www.w3.org/2000/svg" viewBox="0 0 24 24" id="back">
    <path d="M0 0h24v24H0V0z" fill="none"></path>
    <path d="M14.71 6.71c-.39-.39-1.02-.39-1.41 0L8.71 11.3c-.39.39-.39 1.02 0 1.41l4.59 4.59c.39.39 1.02.39 1.41 0 .39-.39.39-1.02 0-1.41L10.83 12l3.88-3.88c.39-.39.38-1.03 0-1.41z"></path>
  </symbol>
  <symbol xmlns="http://www.w3.org/2000/svg" viewBox="0 0 24 24" id="close">
    <path d="M0 0h24v24H0V0z" fill="none"></path>
    <path d="M18.3 5.71c-.39-.39-1.02-.39-1.41 0L12 10.59 7.11 5.7c-.39-.39-1.02-.39-1.41 0-.39.39-.39 1.02 0 1.41L10.59 12 5.7 16.89c-.39.39-.39 1.02 0 1.41.39.39 1.02.39 1.41 0L12 13.41l4.89 4.89c.39.39 1.02.39 1.41 0 .39-.39.39-1.02 0-1.41L13.41 12l4.89-4.89c.38-.38.38-1.02 0-1.4z"></path>
  </symbol>
  <symbol xmlns="http://www.w3.org/2000/svg" enable-background="new 0 0 24 24" viewBox="0 0 24 24" id="dashboard">
    <rect fill="none" height="24" width="24"></rect>
    <path d="M9,21H5c-1.1,0-2-0.9-2-2V5c0-1.1,0.9-2,2-2h4c1.1,0,2,0.9,2,2v14C11,20.1,10.1,21,9,21z M15,21h4c1.1,0,2-0.9,2-2v-5 c0-1.1-0.9-2-2-2h-4c-1.1,0-2,0.9-2,2v5C13,20.1,13.9,21,15,21z M21,8V5c0-1.1-0.9-2-2-2h-4c-1.1,0-2,0.9-2,2v3c0,1.1,0.9,2,2,2h4 C20.1,10,21,9.1,21,8z"></path>
  </symbol>
  <symbol fill="none" xmlns="http://www.w3.org/2000/svg" viewBox="0 0 20 20" id="dinar">
    <g clip-path="url(#clip0_122_137)">
      <rect width="20" height="20" rx="10" fill="currentColor"></rect>
      <path d="M6.3376 6.682C7.0036 6.682 7.5856 6.814 8.0836 7.078C8.5816 7.342 8.9656 7.714 9.2356 8.194C9.5116 8.668 9.6496 9.217 9.6496 9.841C9.6496 10.459 9.5116 11.008 9.2356 11.488C8.9656 11.968 8.5786 12.34 8.0746 12.604C7.5766 12.868 6.9976 13 6.3376 13H3.9706V6.682H6.3376ZM6.2386 11.668C6.8206 11.668 7.2736 11.509 7.5976 11.191C7.9216 10.873 8.0836 10.423 8.0836 9.841C8.0836 9.259 7.9216 8.806 7.5976 8.482C7.2736 8.158 6.8206 7.996 6.2386 7.996H5.5096V11.668H6.2386ZM14.4427 11.884H12.0847L11.7067 13H10.0957L12.3817 6.682H14.1637L16.4497 13H14.8207L14.4427 11.884ZM14.0467 10.696L13.2637 8.383L12.4897 10.696H14.0467Z" fill="white"></path>
    </g>
    <defs>
      <clipPath id="clip0_122_137">
        <rect width="20" height="20" rx="10" fill="white"></rect>
      </clipPath>
    </defs>
  </symbol>
  <symbol xmlns="http://www.w3.org/2000/svg" viewBox="0 0 24 24" id="dollar">
    <path fill="currentColor" d="M11.25 7.847c-.936.256-1.5.975-1.5 1.653s.564 1.397 1.5 1.652zm1.5 5.001v3.304c.936-.255 1.5-.974 1.5-1.652c0-.678-.564-1.397-1.5-1.652"></path>
    <path fill="currentColor" fill-rule="evenodd" d="M22 12c0 5.523-4.477 10-10 10S2 17.523 2 12S6.477 2 12 2s10 4.477 10 10M12 5.25a.75.75 0 0 1 .75.75v.317c1.63.292 3 1.517 3 3.183a.75.75 0 0 1-1.5 0c0-.678-.564-1.397-1.5-1.653v3.47c1.63.292 3 1.517 3 3.183s-1.37 2.891-3 3.183V18a.75.75 0 0 1-1.5 0v-.317c-1.63-.292-3-1.517-3-3.183a.75.75 0 0 1 1.5 0c0 .678.564 1.397 1.5 1.652v-3.469c-1.63-.292-3-1.517-3-3.183s1.37-2.891 3-3.183V6a.75.75 0 0 1 .75-.75" clip-rule="evenodd"></path>
  </symbol>
  <symbol xmlns="http://www.w3.org/2000/svg" viewBox="0 0 24 24" id="finance">
    <path d="M0 0h24v24H0V0z" fill="none"></path>
    <path d="M4 11.5v4c0 .83.67 1.5 1.5 1.5S7 16.33 7 15.5v-4c0-.83-.67-1.5-1.5-1.5S4 10.67 4 11.5zm6 0v4c0 .83.67 1.5 1.5 1.5s1.5-.67 1.5-1.5v-4c0-.83-.67-1.5-1.5-1.5s-1.5.67-1.5 1.5zM3.5 22h16c.83 0 1.5-.67 1.5-1.5s-.67-1.5-1.5-1.5h-16c-.83 0-1.5.67-1.5 1.5S2.67 22 3.5 22zM16 11.5v4c0 .83.67 1.5 1.5 1.5s1.5-.67 1.5-1.5v-4c0-.83-.67-1.5-1.5-1.5s-1.5.67-1.5 1.5zM10.57 1.49l-7.9 4.16c-.41.21-.67.64-.67 1.1C2 7.44 2.56 8 3.25 8h16.51C20.44 8 21 7.44 21 6.75c0-.46-.26-.89-.67-1.1l-7.9-4.16c-.58-.31-1.28-.31-1.86 0z"></path>
  </symbol>
  <symbol xmlns="http://www.w3.org/2000/svg" viewBox="0 0 24 24" id="first_page">
    <path d="M24 0v24H0V0h24z" fill="none" opacity=".87"></path>
    <path d="M17.7 15.89L13.82 12l3.89-3.89c.39-.39.39-1.02 0-1.41-.39-.39-1.02-.39-1.41 0l-4.59 4.59c-.39.39-.39 1.02 0 1.41l4.59 4.59c.39.39 1.02.39 1.41 0 .38-.38.38-1.02-.01-1.4zM7 6c.55 0 1 .45 1 1v10c0 .55-.45 1-1 1s-1-.45-1-1V7c0-.55.45-1 1-1z"></path>
  </symbol>
  <symbol xmlns="http://www.w3.org/2000/svg" enable-background="new 0 0 24 24" viewBox="0 0 24 24" id="grid_view">
    <g>
      <rect fill="none" height="24" width="24"></rect>
    </g>
    <g>
      <g>
        <path d="M5,11h4c1.1,0,2-0.9,2-2V5c0-1.1-0.9-2-2-2H5C3.9,3,3,3.9,3,5v4C3,10.1,3.9,11,5,11z"></path>
        <path d="M5,21h4c1.1,0,2-0.9,2-2v-4c0-1.1-0.9-2-2-2H5c-1.1,0-2,0.9-2,2v4C3,20.1,3.9,21,5,21z"></path>
        <path d="M13,5v4c0,1.1,0.9,2,2,2h4c1.1,0,2-0.9,2-2V5c0-1.1-0.9-2-2-2h-4C13.9,3,13,3.9,13,5z"></path>
        <path d="M15,21h4c1.1,0,2-0.9,2-2v-4c0-1.1-0.9-2-2-2h-4c-1.1,0-2,0.9-2,2v4C13,20.1,13.9,21,15,21z"></path>
      </g>
    </g>
  </symbol>
  <symbol xmlns="http://www.w3.org/2000/svg" viewBox="0 0 24 24" id="last_page">
    <path d="M0 0h24v24H0V0z" fill="none" opacity=".87"></path>
    <path d="M6.29 8.11L10.18 12l-3.89 3.89c-.39.39-.39 1.02 0 1.41.39.39 1.02.39 1.41 0l4.59-4.59c.39-.39.39-1.02 0-1.41L7.7 6.7c-.39-.39-1.02-.39-1.41 0-.38.39-.38 1.03 0 1.41zM17 6c.55 0 1 .45 1 1v10c0 .55-.45 1-1 1s-1-.45-1-1V7c0-.55.45-1 1-1z"></path>
  </symbol>
  <symbol xmlns="http://www.w3.org/2000/svg" enable-background="new 0 0 24 24" viewBox="0 0 24 24" id="list_view">
    <rect fill="none" height="24" width="24"></rect>
    <path d="M4,14h2c0.55,0,1-0.45,1-1v-2c0-0.55-0.45-1-1-1H4c-0.55,0-1,0.45-1,1v2C3,13.55,3.45,14,4,14z M4,19h2c0.55,0,1-0.45,1-1 v-2c0-0.55-0.45-1-1-1H4c-0.55,0-1,0.45-1,1v2C3,18.55,3.45,19,4,19z M4,9h2c0.55,0,1-0.45,1-1V6c0-0.55-0.45-1-1-1H4 C3.45,5,3,5.45,3,6v2C3,8.55,3.45,9,4,9z M9,14h11c0.55,0,1-0.45,1-1v-2c0-0.55-0.45-1-1-1H9c-0.55,0-1,0.45-1,1v2 C8,13.55,8.45,14,9,14z M9,19h11c0.55,0,1-0.45,1-1v-2c0-0.55-0.45-1-1-1H9c-0.55,0-1,0.45-1,1v2C8,18.55,8.45,19,9,19z M8,6v2 c0,0.55,0.45,1,1,1h11c0.55,0,1-0.45,1-1V6c0-0.55-0.45-1-1-1H9C8.45,5,8,5.45,8,6z"></path>
  </symbol>
  <symbol xmlns="http://www.w3.org/2000/svg" viewBox="0 0 24 24" id="more_horiz">
    <path d="M0 0h24v24H0V0z" fill="none"></path>
    <path d="M6 10c-1.1 0-2 .9-2 2s.9 2 2 2 2-.9 2-2-.9-2-2-2zm12 0c-1.1 0-2 .9-2 2s.9 2 2 2 2-.9 2-2-.9-2-2-2zm-6 0c-1.1 0-2 .9-2 2s.9 2 2 2 2-.9 2-2-.9-2-2-2z"></path>
  </symbol>
  <symbol xmlns="http://www.w3.org/2000/svg" viewBox="0 0 24 24" id="next">
    <path d="M0 0h24v24H0V0z" fill="none"></path>
    <path d="M9.29 6.71c-.39.39-.39 1.02 0 1.41L13.17 12l-3.88 3.88c-.39.39-.39 1.02 0 1.41.39.39 1.02.39 1.41 0l4.59-4.59c.39-.39.39-1.02 0-1.41L10.7 6.7c-.38-.38-1.02-.38-1.41.01z"></path>
  </symbol>
  <symbol xmlns="http://www.w3.org/2000/svg" viewBox="0 0 24 24" id="product">
    <path d="M0 0h24v24H0V0z" fill="none"></path>
    <path d="m21.41 11.58-9-9C12.05 2.22 11.55 2 11 2H4c-1.1 0-2 .9-2 2v7c0 .55.22 1.05.59 1.42l9 9c.36.36.86.58 1.41.58s1.05-.22 1.41-.59l7-7c.37-.36.59-.86.59-1.41s-.23-1.06-.59-1.42zM5.5 7C4.67 7 4 6.33 4 5.5S4.67 4 5.5 4 7 4.67 7 5.5 6.33 7 5.5 7z"></path>
  </symbol>
  <symbol xmlns="http://www.w3.org/2000/svg" viewBox="0 0 24 24" id="search">
    <path d="M0 0h24v24H0V0z" fill="none"></path>
    <path d="M15.5 14h-.79l-.28-.27c1.2-1.4 1.82-3.31 1.48-5.34-.47-2.78-2.79-5-5.59-5.34-4.23-.52-7.79 3.04-7.27 7.27.34 2.8 2.56 5.12 5.34 5.59 2.03.34 3.94-.28 5.34-1.48l.27.28v.79l4.25 4.25c.41.41 1.08.41 1.49 0 .41-.41.41-1.08 0-1.49L15.5 14zm-6 0C7.01 14 5 11.99 5 9.5S7.01 5 9.5 5 14 7.01 14 9.5 11.99 14 9.5 14z"></path>
  </symbol>
  <symbol xmlns="http://www.w3.org/2000/svg" enable-background="new 0 0 24 24" viewBox="0 0 24 24" id="settings">
    <rect fill="none" height="24" width="24"></rect>
    <path d="M19.5,12c0-0.23-0.01-0.45-0.03-0.68l1.86-1.41c0.4-0.3,0.51-0.86,0.26-1.3l-1.87-3.23c-0.25-0.44-0.79-0.62-1.25-0.42 l-2.15,0.91c-0.37-0.26-0.76-0.49-1.17-0.68l-0.29-2.31C14.8,2.38,14.37,2,13.87,2h-3.73C9.63,2,9.2,2.38,9.14,2.88L8.85,5.19 c-0.41,0.19-0.8,0.42-1.17,0.68L5.53,4.96c-0.46-0.2-1-0.02-1.25,0.42L2.41,8.62c-0.25,0.44-0.14,0.99,0.26,1.3l1.86,1.41 C4.51,11.55,4.5,11.77,4.5,12s0.01,0.45,0.03,0.68l-1.86,1.41c-0.4,0.3-0.51,0.86-0.26,1.3l1.87,3.23c0.25,0.44,0.79,0.62,1.25,0.42 l2.15-0.91c0.37,0.26,0.76,0.49,1.17,0.68l0.29,2.31C9.2,21.62,9.63,22,10.13,22h3.73c0.5,0,0.93-0.38,0.99-0.88l0.29-2.31 c0.41-0.19,0.8-0.42,1.17-0.68l2.15,0.91c0.46,0.2,1,0.02,1.25-0.42l1.87-3.23c0.25-0.44,0.14-0.99-0.26-1.3l-1.86-1.41 C19.49,12.45,19.5,12.23,19.5,12z M12.04,15.5c-1.93,0-3.5-1.57-3.5-3.5s1.57-3.5,3.5-3.5s3.5,1.57,3.5,3.5S13.97,15.5,12.04,15.5z"></path>
  </symbol>
  <symbol xmlns="http://www.w3.org/2000/svg" viewBox="0 0 24 24" id="shipment">
    <path d="M0 0h24v24H0V0z" fill="none"></path>
    <path d="M19.5 8H17V6c0-1.1-.9-2-2-2H3c-1.1 0-2 .9-2 2v9c0 1.1.9 2 2 2 0 1.66 1.34 3 3 3s3-1.34 3-3h6c0 1.66 1.34 3 3 3s3-1.34 3-3h1c.55 0 1-.45 1-1v-3.33c0-.43-.14-.85-.4-1.2L20.3 8.4c-.19-.25-.49-.4-.8-.4zM6 18c-.55 0-1-.45-1-1s.45-1 1-1 1 .45 1 1-.45 1-1 1zm13.5-8.5l1.96 2.5H17V9.5h2.5zM18 18c-.55 0-1-.45-1-1s.45-1 1-1 1 .45 1 1-.45 1-1 1z"></path>
  </symbol>
  <symbol xmlns="http://www.w3.org/2000/svg" viewBox="0 0 24 24" id="spinner">
    <g fill="currentColor">
      <path fill-rule="evenodd" d="M12 19a7 7 0 1 0 0-14a7 7 0 0 0 0 14Zm0 3c5.523 0 10-4.477 10-10S17.523 2 12 2S2 6.477 2 12s4.477 10 10 10Z" clip-rule="evenodd" opacity=".2"></path>
      <path d="M2 12C2 6.477 6.477 2 12 2v3a7 7 0 0 0-7 7H2Z"></path>
    </g>
  </symbol>
  <symbol xmlns="http://www.w3.org/2000/svg" enable-background="new 0 0 24 24" viewBox="0 0 24 24" id="stock">
    <g>
      <rect fill="none" height="24" width="24"></rect>
    </g>
    <g>
      <path d="M20,2H4C3,2,2,2.9,2,4v3.01C2,7.73,2.43,8.35,3,8.7V20c0,1.1,1.1,2,2,2h14c0.9,0,2-0.9,2-2V8.7c0.57-0.35,1-0.97,1-1.69V4 C22,2.9,21,2,20,2z M14,14h-4c-0.55,0-1-0.45-1-1v0c0-0.55,0.45-1,1-1h4c0.55,0,1,0.45,1,1v0C15,13.55,14.55,14,14,14z M20,7H4V4 h16V7z"></path>
    </g>
  </symbol>
  <symbol xmlns="http://www.w3.org/2000/svg" viewBox="0 0 24 24" id="upload">
    <path fill="currentColor" d="M11 16V7.85l-2.6 2.6L7 9l5-5l5 5l-1.4 1.45l-2.6-2.6V16h-2Zm-5 4q-.825 0-1.412-.587T4 18v-3h2v3h12v-3h2v3q0 .825-.587 1.413T18 20H6Z"></path>
  </symbol>
  <symbol xmlns="http://www.w3.org/2000/svg" viewBox="0 0 24 24" id="yuan">
    <g fill="none" stroke-linecap="round" stroke-linejoin="round" stroke-width="2">
      <path d="M0 0h24v24H0z"></path>
      <path fill="currentColor" d="M17 3.34A10 10 0 1 1 2 12l.005-.324A10 10 0 0 1 17 3.34m-1.445 3.828a1 1 0 0 0-1.387.277L12 10.696l-2.168-3.25a1 1 0 0 0-1.286-.337l-.1.059a1 1 0 0 0-.278 1.387L10.464 12H9a1 1 0 0 0-.993.883L8 13a1 1 0 0 0 1 1h2v3a1 1 0 0 0 .883.993L12 18l.117-.007A1 1 0 0 0 13 17v-3h2a1 1 0 0 0 .993-.883L16 13a1 1 0 0 0-1-1h-1.465l2.297-3.445a1 1 0 0 0-.184-1.317z"></path>
    </g>
  </symbol>
</svg>